<?xml version="1.0" encoding="utf-8"?>
<!-- Generator: Adobe Illustrator 22.0.1, SVG Export Plug-In . SVG Version: 6.00 Build 0)  -->
<svg version="1.1" id="Layer_1" xmlns="http://www.w3.org/2000/svg" xmlns:xlink="http://www.w3.org/1999/xlink" x="0px" y="0px"
	 viewBox="0 0 64 64" style="enable-background:new 0 0 64 64;" xml:space="preserve">
<path d="M56,35V13c0-0.6-0.4-1-1-1H44v-1c0-5-4-9-9-9H23c-5,0-9,4-9,9v1H3c-0.6,0-1,0.4-1,1v34c0,0.6,0.4,1,1,1h29.1
	c0.1,1.9,0.6,3.7,1.4,5.4l1.8-0.9C34.4,50.8,34,49,34,47c0-7.2,5.8-13,13-13c0.4,0,0.8,0,1.2,0.1c0.1,0,0.2,0,0.4,0
	c0.3,0,0.6,0.1,0.8,0.1c0.1,0,0.2,0,0.4,0.1c0.3,0.1,0.7,0.2,1,0.3c0,0,0.1,0,0.1,0c0.4,0.1,0.7,0.2,1.1,0.4
	c0.1,0.1,0.3,0.1,0.4,0.2c0.2,0.1,0.4,0.2,0.6,0.3c0.1,0.1,0.3,0.2,0.4,0.2c0.2,0.1,0.4,0.2,0.6,0.3c0.1,0.1,0.3,0.2,0.4,0.3
	C57.8,38.6,60,42.6,60,47c0,7.2-5.8,13-13,13c-2.9,0-5.7-1-8-2.8l-1.2,1.6c2.7,2.1,5.9,3.2,9.3,3.2c8.3,0,15-6.7,15-15
	C62,42.1,59.6,37.8,56,35z M16,11c0-3.9,3.1-7,7-7h12c3.9,0,7,3.1,7,7v1h-2v-1c0-2.8-2.2-5-5-5H23c-2.8,0-5,2.2-5,5v1h-2V11z M38,12
	H20v-1c0-1.7,1.3-3,3-3h12c1.7,0,3,1.3,3,3V12z M15,14h4h20h4h11v5.6L46.6,27H33v-3c0-0.6-0.4-1-1-1h-8c-0.6,0-1,0.4-1,1v3H11.4
	L4,19.6V14H15z M25,29h6v2h-6V29z M25,27v-2h6v2H25z M4,22.4l6.3,6.3c0.2,0.2,0.4,0.3,0.7,0.3h12v3c0,0.6,0.4,1,1,1h8
	c0.6,0,1-0.4,1-1v-3h14c0.3,0,0.5-0.1,0.7-0.3l6.3-6.3v11.3c-0.1,0-0.1-0.1-0.2-0.1c-0.4-0.2-0.8-0.4-1.3-0.6
	c-0.2-0.1-0.3-0.1-0.5-0.2c-0.4-0.1-0.7-0.2-1.1-0.3c-0.2-0.1-0.4-0.1-0.6-0.1c-0.4-0.1-0.8-0.2-1.2-0.2c-0.2,0-0.3-0.1-0.5-0.1
	C48.1,32,47.6,32,47,32c-0.5,0-1,0-1.5,0.1c-0.2,0-0.3,0-0.5,0.1c-0.3,0-0.6,0.1-1,0.1c-0.2,0-0.4,0.1-0.6,0.1
	c-0.3,0.1-0.6,0.1-0.8,0.2c-0.2,0.1-0.4,0.1-0.6,0.2c-0.3,0.1-0.5,0.2-0.8,0.3c-0.2,0.1-0.4,0.2-0.6,0.3c-0.2,0.1-0.5,0.2-0.7,0.3
	c-0.2,0.1-0.4,0.2-0.6,0.3c-0.2,0.1-0.4,0.3-0.7,0.4c-0.2,0.1-0.4,0.3-0.5,0.4c-0.2,0.1-0.4,0.3-0.6,0.5c-0.2,0.1-0.3,0.3-0.5,0.4
	c-0.2,0.2-0.4,0.3-0.6,0.5c-0.2,0.2-0.3,0.3-0.5,0.5c-0.2,0.2-0.3,0.4-0.5,0.5c-0.1,0.2-0.3,0.3-0.4,0.5c-0.2,0.2-0.3,0.4-0.4,0.6
	c-0.1,0.2-0.3,0.4-0.4,0.6c-0.1,0.2-0.3,0.4-0.4,0.6c-0.1,0.2-0.2,0.4-0.3,0.6c-0.1,0.2-0.2,0.4-0.3,0.7c-0.1,0.2-0.2,0.4-0.3,0.6
	c-0.1,0.2-0.2,0.5-0.3,0.7c-0.1,0.2-0.1,0.4-0.2,0.7c-0.1,0.2-0.1,0.5-0.2,0.7c-0.1,0.2-0.1,0.5-0.1,0.7c0,0.3-0.1,0.5-0.1,0.8
	c0,0.2-0.1,0.5-0.1,0.7c0,0.1,0,0.2,0,0.3H4V22.4z"/>
<path d="M43,54h4.6l1.7,1.7c0.2,0.2,0.4,0.3,0.7,0.3c0.1,0,0.1,0,0.2,0c0.3-0.1,0.6-0.3,0.7-0.5l6-12c0.2-0.3,0.1-0.7,0-1
	S56.3,42,56,42H38c-0.4,0-0.8,0.2-0.9,0.6s-0.1,0.8,0.2,1.1l4.7,4.7V53C42,53.6,42.4,54,43,54z M44,52v-1.6l1.6,1.6H44z M49.7,53.3
	l-4.9-4.9l9.2-3.5L49.7,53.3z M50.6,44l-7.4,2.8L40.4,44H50.6z"/>
<rect x="14" y="57" width="2" height="2"/>
<rect x="26" y="57" width="2" height="2"/>
<rect x="6" y="57" width="2" height="2"/>
<rect x="10" y="57" width="2" height="2"/>
<rect x="30" y="57" width="2" height="2"/>
<rect x="22" y="57" width="2" height="2"/>
<rect x="2" y="57" width="2" height="2"/>
<rect x="18" y="57" width="2" height="2"/>
<rect x="34.5" y="55.5" transform="matrix(0.7071 -0.7071 0.7071 0.7071 -29.5894 41.6352)" width="2" height="2"/>
<rect x="37.3" y="52.7" transform="matrix(0.7071 -0.7071 0.7071 0.7071 -26.7609 42.8071)" width="2" height="2"/>
</svg>
