<svg id="Layer_1" data-name="Layer 1" xmlns="http://www.w3.org/2000/svg" viewBox="0 0 60.1 60"><defs><style>.cls-1{fill:#fff;}</style></defs><title>noun_1036986_cc_white</title><path class="cls-1" d="M56,35V13a.94.94,0,0,0-1-1H44V11a9,9,0,0,0-9-9H23a9,9,0,0,0-9,9v1H3a.94.94,0,0,0-1,1V47a.94.94,0,0,0,1,1H32.1a14.39,14.39,0,0,0,1.4,5.4l1.8-.9A11.44,11.44,0,0,1,34,47,13,13,0,0,1,47,34a4.87,4.87,0,0,1,1.2.1h.4c.3,0,.6.1.8.1a.76.76,0,0,1,.4.1l1,.3h.1A4.87,4.87,0,0,1,52,35c.1.1.3.1.4.2l.6.3a.76.76,0,0,0,.4.2l.6.3c.1.1.3.2.4.3A13,13,0,1,1,39,57.2l-1.2,1.6A15,15,0,0,0,62.1,47,15.6,15.6,0,0,0,56,35ZM16,11a7,7,0,0,1,7-7H35a7,7,0,0,1,7,7v1H40V11a5,5,0,0,0-5-5H23a5,5,0,0,0-5,5v1H16Zm22,1H20V11a3,3,0,0,1,3-3H35a3,3,0,0,1,3,3ZM15,14H54v5.6L46.6,27H33V24a.94.94,0,0,0-1-1H24a.94.94,0,0,0-1,1v3H11.4L4,19.6V14ZM25,29h6v2H25Zm0-2V25h6v2ZM4,22.4l6.3,6.3a.91.91,0,0,0,.7.3H23v3a.94.94,0,0,0,1,1h8a.94.94,0,0,0,1-1V29H47a.91.91,0,0,0,.7-.3L54,22.4V33.7c-.1,0-.1-.1-.2-.1-.4-.2-.8-.4-1.3-.6-.2-.1-.3-.1-.5-.2l-1.1-.3a1.27,1.27,0,0,0-.6-.1,5,5,0,0,0-1.2-.2c-.2,0-.3-.1-.5-.1A8.08,8.08,0,0,0,47,32a7.57,7.57,0,0,0-1.5.1.9.9,0,0,0-.5.1c-.3,0-.6.1-1,.1-.2,0-.4.1-.6.1s-.6.1-.8.2-.4.1-.6.2-.5.2-.8.3l-.6.3c-.2.1-.5.2-.7.3l-.6.3a4.35,4.35,0,0,1-.7.4,2.18,2.18,0,0,0-.5.4,2.65,2.65,0,0,0-.6.5c-.2.1-.3.3-.5.4s-.4.3-.6.5l-.5.5c-.2.2-.3.4-.5.5s-.3.3-.4.5a2.09,2.09,0,0,0-.4.6c-.1.2-.3.4-.4.6s-.3.4-.4.6l-.3.6a4.88,4.88,0,0,0-.3.7l-.3.6c-.1.2-.2.5-.3.7a6.37,6.37,0,0,0-.2.7c-.1.2-.1.5-.2.7a1.7,1.7,0,0,0-.1.7c0,.3-.1.5-.1.8s-.1.5-.1.7V46H4Z" transform="translate(-2 -2)"/><path class="cls-1" d="M43,54h4.6l1.7,1.7a.91.91,0,0,0,.7.3h.2a1.28,1.28,0,0,0,.7-.5l6-12a1.17,1.17,0,0,0,0-1A1.05,1.05,0,0,0,56,42H38a.87.87,0,0,0-.9.6,1.09,1.09,0,0,0,.2,1.1L42,48.4V53A.94.94,0,0,0,43,54Zm1-2V50.4L45.6,52Zm5.7,1.3-4.9-4.9L54,44.9Zm.9-9.3-7.4,2.8L40.4,44Z" transform="translate(-2 -2)"/><rect class="cls-1" x="12" y="55" width="2" height="2"/><rect class="cls-1" x="24" y="55" width="2" height="2"/><rect class="cls-1" x="4" y="55" width="2" height="2"/><rect class="cls-1" x="8" y="55" width="2" height="2"/><rect class="cls-1" x="28" y="55" width="2" height="2"/><rect class="cls-1" x="20" y="55" width="2" height="2"/><rect class="cls-1" y="55" width="2" height="2"/><rect class="cls-1" x="16" y="55" width="2" height="2"/><rect class="cls-1" x="34.46" y="55.48" width="2" height="2" transform="translate(-31.55 39.62) rotate(-45)"/><rect class="cls-1" x="37.29" y="52.7" width="2" height="2" transform="translate(-28.75 40.8) rotate(-45)"/></svg>